<svg id="master-artboard" viewBox="0 0 1400 980" version="1.1" xmlns="http://www.w3.org/2000/svg" x="0px" y="0px" style="enable-background:new 0 0 1400 980;" width="1400px" height="980px"><defs><clipPath clipPathUnits="userSpaceOnUse" id="clipPath26"><path d="m 26041.8,17444.7 -4422.2,-6808.2 c -149,145.4 -239,347 -239,563.7 v 5456.9 c 0,432 354.9,787.6 786.9,787.6 z m 586.1,499 v 559.4 c 0,293.8 -240.5,534.3 -535,534.3 h -2304.6 c -294.5,0 -535,-240.5 -535,-534.3 v -559.4 h -1085.8 c -707.7,0 -1286.6,-578.9 -1286.6,-1286.6 v -5456.9 c 0,-573.8 380.9,-1063.4 902.2,-1227.6 l 5178.2,7971.1 z m -455,559.4 0.7,-559.4 h -2464.5 l -0.8,559.4 c 0,42.5 36.7,80 80,80 h 2304.6 c 43.3,0 80,-37.5 80,-80 z" id="path24"/></clipPath><linearGradient x1="0" y1="0" x2="1" y2="0" gradientUnits="userSpaceOnUse" gradientTransform="matrix(5314.93,8472.18,-8472.18,5314.93,19955.1,11162.5)" spreadMethod="pad" id="linearGradient32"><stop style="stop-opacity:1;stop-color:#331cde" offset="0" id="stop28"/><stop style="stop-opacity:1;stop-color:#ee20d3" offset="1" id="stop30"/></linearGradient></defs><g transform="matrix(0.21000002324581143, 0, 0, 0.21000002324581143, -3.512206765741439, 55.95113036208474)"><g id="g20" transform="matrix(0.5209920406341553, 0, 0, -0.5209920406341553, -9801.615234375, 9490.48046875)"><g id="g22" clip-path="url(#clipPath26)"><path d="M 26041.8 17444.7 L 21619.6 10636.5 C 21470.6 10781.9 21380.6 10983.5 21380.6 11200.2 L 21380.6 16657.1 C 21380.6 17089.1 21735.5 17444.699999999997 22167.5 17444.699999999997 L 26041.8 17444.7 Z M 26627.899999999998 17943.7 L 23253.3 17943.7 L 22167.5 17943.7 C 21459.8 17943.7 20880.9 17364.8 20880.9 16657.100000000002 L 20880.9 11200.200000000003 C 20880.9 10626.400000000003 21261.800000000003 10136.800000000003 21783.100000000002 9972.600000000002 L 26961.300000000003 17943.700000000004 L 26627.899999999998 17943.7 Z M 26173.6 17943.7 L 23709.1 17943.7" style="fill:url(#linearGradient32);fill-opacity:1;fill-rule:nonzero;stroke:none" id="path34"/></g></g><path d="m 27556.7,17943.7 h 157 c 707.7,0 1286.6,-578.9 1286.6,-1286.6 v -5456.9 c 0,-707.7 -578.9,-1286.6 -1286.6,-1286.6 h -5373.4 l 5216.4,8030.1" style="fill: rgb(62, 21, 79); fill-opacity: 1; fill-rule: nonzero; stroke: none;" id="path36" transform="matrix(0.5209920406341553, 0, 0, -0.5209920406341553, -9801.615234375, 9490.48046875)"/></g></svg>